<?xml version="1.0" encoding="UTF-8" standalone="no"?>
<!DOCTYPE svg PUBLIC "-//W3C//DTD SVG 1.1//EN" "http://www.w3.org/Graphics/SVG/1.1/DTD/svg11.dtd">
<!-- Created with Linearity Curve (http://linearity.io/curve) -->
<svg height="1079.9999999999995px" stroke-miterlimit="10" style="fill-rule:nonzero;clip-rule:evenodd;stroke-linecap:round;stroke-linejoin:round;" version="1.1" viewBox="0 0 1080 1080" width="1080.0px" xml:space="preserve" xmlns="http://www.w3.org/2000/svg" xmlns:xlink="http://www.w3.org/1999/xlink">
<defs/>
<g id="Layer-1">
<g opacity="1">
<g opacity="1">
<path d="M557.625 460.246L903.162 645.078L867.222 712.266L521.685 527.434L557.625 460.246Z" fill="#d4f5a0" fill-rule="nonzero" opacity="1" stroke="none"/>
<path d="M442.204 233.912L678.961 360.556L506.108 683.696L269.352 557.052L442.204 233.912Z" fill="#d4f5a0" fill-rule="nonzero" opacity="1" stroke="none"/>
<path d="M438.009 194.185C444.785 181.518 460.547 176.741 473.215 183.518L703.667 306.789C716.334 313.565 721.11 329.327 714.334 341.995L714.334 341.995C707.558 354.663 691.796 359.439 679.128 352.663L448.676 229.391C436.009 222.615 431.233 206.853 438.009 194.185L438.009 194.185Z" fill="#d4f5a0" fill-rule="nonzero" opacity="1" stroke="none"/>
<path d="M234.204 575.19C240.981 562.523 256.743 557.746 269.41 564.523L499.862 687.794C512.53 694.57 517.306 710.332 510.53 723L510.53 723C503.754 735.668 487.992 740.444 475.324 733.668L244.872 610.396C232.204 603.62 227.428 587.858 234.204 575.19L234.204 575.19Z" fill="#d4f5a0" fill-rule="nonzero" opacity="1" stroke="none"/>
<g opacity="1">
<path d="M913.292 637.151L967.154 665.963L919.026 755.935L865.164 727.124L913.292 637.151Z" fill="#d4f5a0" fill-rule="nonzero" opacity="1" stroke="none"/>
<path d="M912.88 637.841C920.846 622.949 939.376 617.334 954.268 625.3C969.16 633.266 974.774 651.796 966.809 666.688C958.843 681.58 940.313 687.195 925.421 679.229C910.529 671.263 904.914 652.733 912.88 637.841Z" fill="#d4f5a0" fill-rule="nonzero" opacity="1" stroke="none"/>
<path d="M867.265 723.117C875.231 708.225 893.761 702.61 908.653 710.576C923.545 718.542 929.159 737.072 921.193 751.964C913.228 766.856 894.698 772.47 879.806 764.505C864.914 756.539 859.299 738.009 867.265 723.117Z" fill="#d4f5a0" fill-rule="nonzero" opacity="1" stroke="none"/>
</g>
</g>
<path d="M98.768 881.448C98.768 866.368 216.782 854.144 362.36 854.144C507.938 854.144 625.952 866.368 625.952 881.448C625.952 896.527 507.938 908.752 362.36 908.752C216.782 908.752 98.768 896.527 98.768 881.448Z" fill="#d4f5a0" fill-rule="nonzero" opacity="1" stroke="none"/>
</g>
</g>
</svg>
