<?xml version="1.0" encoding="UTF-8" standalone="no"?>
<!DOCTYPE svg PUBLIC "-//W3C//DTD SVG 1.1//EN" "http://www.w3.org/Graphics/SVG/1.1/DTD/svg11.dtd">
<!-- Created with Linearity Curve (http://linearity.io/curve) -->
<svg height="1080.0px" stroke-miterlimit="10" style="fill-rule:nonzero;clip-rule:evenodd;stroke-linecap:round;stroke-linejoin:round;" version="1.1" viewBox="0 0 1080 1080" width="1080.0px" xml:space="preserve" xmlns="http://www.w3.org/2000/svg" xmlns:xlink="http://www.w3.org/1999/xlink">
<defs/>
<clipPath id="ArtboardFrame">
<rect height="1080" width="1080" x="0" y="0"/>
</clipPath>
<g clip-path="url(#ArtboardFrame)" id="Layer-1">
<path d="M290.483 146.158L290.483 203.172C201.508 207.288 130.424 279.858 130.424 369.26C130.424 408.567 148.933 441.302 181.933 468.78C205.558 488.453 234.845 504.804 280.104 525.657C292.214 531.237 334.694 550.193 339.899 552.554C343.176 554.039 346.401 555.389 349.59 556.628C379.116 588.728 417.851 613.21 461.994 626.526L461.994 741.849C409.025 760.731 370.192 798.391 361.152 843.517C298.923 864.966 259.237 897.469 259.237 933.842L818.121 933.842C818.121 897.469 778.434 864.966 716.205 843.517C707.167 798.398 668.347 760.734 615.391 741.849L615.391 626.526C658.878 613.407 697.09 589.434 726.446 558.032C730.921 556.424 735.451 554.662 740.101 552.554C745.306 550.193 787.786 531.237 799.896 525.657C845.155 504.804 874.442 488.453 898.067 468.78C931.067 441.302 949.576 408.567 949.576 369.26C949.576 278.972 877.085 205.839 786.874 203.062L786.874 146.158L290.483 146.158ZM786.874 286.422C831.224 289.103 866.188 325.224 866.188 369.26C866.188 381.124 860.108 391.877 844.687 404.718C831.282 415.88 812.367 427.001 785.002 440.369C786.849 428.958 787.81 417.271 787.81 405.379C787.81 398.731 787.461 392.174 786.874 385.668L786.874 286.422ZM290.483 286.56L290.483 385.998C289.916 392.397 289.547 398.843 289.547 405.379C289.547 416.806 290.455 428.035 292.162 439.02C266.257 426.239 248.278 415.514 235.313 404.718C219.892 391.877 213.812 381.124 213.812 369.26C213.812 326.096 247.386 290.48 290.483 286.56Z" fill="#d4f5a0" fill-rule="nonzero" opacity="1" stroke="none"/>
<path d="M-361.783 784.097C-361.783 754.274-337.606 730.097-307.783 730.097C-277.959 730.097-253.783 754.274-253.783 784.097C-253.783 813.92-277.959 838.097-307.783 838.097C-337.606 838.097-361.783 813.92-361.783 784.097Z" fill="none" opacity="1" stroke="#000000" stroke-linecap="butt" stroke-linejoin="round" stroke-width="1"/>
</g>
</svg>
